/* XPM */
static char * collect_xpm[] = {
"50 50 482 2",
"  	c None",
". 	c #1B3B8D",
"+ 	c #1D3B8E",
"@ 	c #1D3D8F",
"# 	c #1D3A8D",
"$ 	c #1E3A8E",
"% 	c #1E3B8F",
"& 	c #1E3E8E",
"* 	c #1C3C8E",
"= 	c #1D3B8F",
"- 	c #1D3A8E",
"; 	c #1C3D8F",
"> 	c #1D3C8F",
", 	c #1E3B8E",
"' 	c #1C3A8C",
") 	c #1C6AAA",
"! 	c #174B98",
"~ 	c #1C3A8D",
"{ 	c #1E3C8F",
"] 	c #1A3A8C",
"^ 	c #1B4292",
"/ 	c #0F5BA6",
"( 	c #1256A0",
"_ 	c #174895",
": 	c #1D3C8E",
"< 	c #1E3D90",
"[ 	c #1C3D90",
"} 	c #1E3C90",
"| 	c #174290",
"1 	c #194895",
"2 	c #1A4996",
"3 	c #0A6FB2",
"4 	c #135AA4",
"5 	c #0669AD",
"6 	c #1157A2",
"7 	c #174997",
"8 	c #13569F",
"9 	c #11519C",
"0 	c #0867A9",
"a 	c #0A64A8",
"b 	c #1157A1",
"c 	c #124E9A",
"d 	c #184794",
"e 	c #11559E",
"f 	c #0860A8",
"g 	c #0E549C",
"h 	c #194493",
"i 	c #174C97",
"j 	c #1C4594",
"k 	c #194B97",
"l 	c #184B97",
"m 	c #1458A3",
"n 	c #0570B1",
"o 	c #0D5FA7",
"p 	c #046EB0",
"q 	c #076BB0",
"r 	c #0671B4",
"s 	c #016EB2",
"t 	c #0961AA",
"u 	c #065CA4",
"v 	c #0274B6",
"w 	c #076BAF",
"x 	c #0966AD",
"y 	c #036BAF",
"z 	c #026CB0",
"A 	c #016EB0",
"B 	c #0E56A0",
"C 	c #1A4999",
"D 	c #184E9A",
"E 	c #184D98",
"F 	c #15569E",
"G 	c #0662AA",
"H 	c #0564A6",
"I 	c #0E5DA5",
"J 	c #0368AC",
"K 	c #0463AB",
"L 	c #026CB2",
"M 	c #0177B9",
"N 	c #016CB3",
"O 	c #0276B8",
"P 	c #0287C3",
"Q 	c #0173B5",
"R 	c #038BC9",
"S 	c #006FB3",
"T 	c #017BBD",
"U 	c #017CBD",
"V 	c #026CB1",
"W 	c #046EB1",
"X 	c #095AA3",
"Y 	c #12509B",
"Z 	c #1D4495",
"` 	c #1C4795",
" .	c #1B4896",
"..	c #1C4695",
"+.	c #254E99",
"@.	c #056DB0",
"#.	c #0A5FA8",
"$.	c #0D5DA6",
"%.	c #0A63A9",
"&.	c #016FB1",
"*.	c #016CB1",
"=.	c #017CBC",
"-.	c #017FC0",
";.	c #017BBC",
">.	c #018FCA",
",.	c #0079BA",
"'.	c #0285C3",
").	c #0070B5",
"!.	c #0185C4",
"~.	c #0278BB",
"{.	c #0188C5",
"].	c #0174B6",
"^.	c #0A58A0",
"/.	c #154F9A",
"(.	c #1B4A97",
"_.	c #1B4996",
":.	c #1B4795",
"<.	c #076CAF",
"[.	c #046AAE",
"}.	c #0665AB",
"|.	c #0171B2",
"1.	c #095FA9",
"2.	c #0179BA",
"3.	c #0078BB",
"4.	c #0079BB",
"5.	c #007EBE",
"6.	c #017ABB",
"7.	c #0180BF",
"8.	c #017CBE",
"9.	c #0175B9",
"0.	c #0081C0",
"a.	c #0078B9",
"b.	c #0173B7",
"c.	c #027FBE",
"d.	c #0B5BA3",
"e.	c #0F579F",
"f.	c #1B4797",
"g.	c #184D99",
"h.	c #1D4A95",
"i.	c #0470B2",
"j.	c #105DA4",
"k.	c #0F5CA4",
"l.	c #125CA3",
"m.	c #0167AD",
"n.	c #0075B8",
"o.	c #0282C2",
"p.	c #0187C5",
"q.	c #0178BA",
"r.	c #0073B7",
"s.	c #0077B9",
"t.	c #017EBF",
"u.	c #0077BA",
"v.	c #0184C3",
"w.	c #017ABC",
"x.	c #0968AF",
"y.	c #0761A8",
"z.	c #174B99",
"A.	c #194D98",
"B.	c #174B97",
"C.	c #0F5EA8",
"D.	c #086BB0",
"E.	c #056AAF",
"F.	c #0666AD",
"G.	c #016BB0",
"H.	c #0171B5",
"I.	c #0178BB",
"J.	c #007EBD",
"K.	c #0279BB",
"L.	c #0182C1",
"M.	c #007FC0",
"N.	c #007ABB",
"O.	c #017FBF",
"P.	c #0078BC",
"Q.	c #027ABE",
"R.	c #017BBE",
"S.	c #0184C2",
"T.	c #0280C0",
"U.	c #036EB1",
"V.	c #134E9A",
"W.	c #0B5DA9",
"X.	c #194797",
"Y.	c #154E98",
"Z.	c #1A4795",
"`.	c #39589C",
" +	c #1593C7",
".+	c #125DA5",
"++	c #0862A7",
"@+	c #0964AD",
"#+	c #0272B6",
"$+	c #0372B7",
"%+	c #0075B7",
"&+	c #017DBE",
"*+	c #007CBD",
"=+	c #007DBF",
"-+	c #0185C5",
";+	c #007DBD",
">+	c #037ABB",
",+	c #0C58A3",
"'+	c #1359A3",
")+	c #1B4695",
"!+	c #184C98",
"~+	c #15509B",
"{+	c #1A4F99",
"]+	c #0E7BB2",
"^+	c #0469AD",
"/+	c #0769B0",
"(+	c #0175B6",
"_+	c #0277BA",
":+	c #0176B9",
"<+	c #027ABC",
"[+	c #0076B9",
"}+	c #0283C2",
"|+	c #086EB3",
"1+	c #0372B6",
"2+	c #007ABC",
"3+	c #017EBE",
"4+	c #0083C1",
"5+	c #007CBC",
"6+	c #117AB9",
"7+	c #0C5DA5",
"8+	c #095FA5",
"9+	c #1B4998",
"0+	c #164D99",
"a+	c #1078B5",
"b+	c #0764A9",
"c+	c #0C63AC",
"d+	c #0487C4",
"e+	c #0286C4",
"f+	c #006FB4",
"g+	c #0183C1",
"h+	c #0179BB",
"i+	c #0275B8",
"j+	c #436CAA",
"k+	c #B0B8CD",
"l+	c #ACB4C5",
"m+	c #377EBA",
"n+	c #017ABD",
"o+	c #0175B8",
"p+	c #017DBD",
"q+	c #759DC7",
"r+	c #6983AC",
"s+	c #0B549E",
"t+	c #1B4295",
"u+	c #144E9A",
"v+	c #174F9B",
"w+	c #0D84BD",
"x+	c #13549E",
"y+	c #174C98",
"z+	c #14559F",
"A+	c #0E5EA7",
"B+	c #027CBD",
"C+	c #0174B7",
"D+	c #026FB4",
"E+	c #208AC3",
"F+	c #CED3DE",
"G+	c #FDFDFE",
"H+	c #FEFDFE",
"I+	c #C3CFE0",
"J+	c #0386C4",
"K+	c #0276B9",
"L+	c #0072B5",
"M+	c #018CC8",
"N+	c #478EC5",
"O+	c #4476A9",
"P+	c #13519C",
"Q+	c #154997",
"R+	c #194192",
"S+	c #1B3F90",
"T+	c #165593",
"U+	c #153070",
"V+	c #18357A",
"W+	c #173987",
"X+	c #16358C",
"Y+	c #0577B8",
"Z+	c #1D80BB",
"`+	c #EAEBEE",
" @	c #FFFEFE",
".@	c #FFFEFD",
"+@	c #DDE5EE",
"@@	c #0270B4",
"#@	c #0078BA",
"$@	c #006EB3",
"%@	c #0076B8",
"&@	c #0469AE",
"*@	c #124B98",
"=@	c #1B3D90",
"-@	c #1B3D91",
";@	c #1C3B8E",
">@	c #154492",
",@	c #0E2154",
"'@	c #000510",
")@	c #010612",
"!@	c #0A193D",
"~@	c #143180",
"{@	c #0F4E98",
"]@	c #0168AD",
"^@	c #0170B5",
"/@	c #0071B5",
"(@	c #1B559F",
"_@	c #B1B2BA",
":@	c #FCFCFC",
"<@	c #FBFBFC",
"[@	c #99B3CE",
"}@	c #016FB3",
"|@	c #0176B8",
"1@	c #0273B6",
"2@	c #0260A6",
"3@	c #174493",
"4@	c #194092",
"5@	c #1C3B8D",
"6@	c #1A4191",
"7@	c #00030E",
"8@	c #010510",
"9@	c #030715",
"0@	c #0D214C",
"a@	c #143584",
"b@	c #0C65A8",
"c@	c #028BC9",
"d@	c #0270B5",
"e@	c #0282C1",
"f@	c #0B63A9",
"g@	c #1A3569",
"h@	c #676E7E",
"i@	c #5C78A0",
"j@	c #086AB0",
"k@	c #0081C1",
"l@	c #007BBD",
"m@	c #017BBB",
"n@	c #0182C0",
"o@	c #0177BA",
"p@	c #065EA7",
"q@	c #08549E",
"r@	c #1A3D90",
"s@	c #1B3D8F",
"t@	c #1A3E8E",
"u@	c #1A3D8E",
"v@	c #040D1B",
"w@	c #020918",
"x@	c #040B1B",
"y@	c #081426",
"z@	c #122C6C",
"A@	c #153683",
"B@	c #0568AB",
"C@	c #0288C5",
"D@	c #006BB0",
"E@	c #0478BA",
"F@	c #027FC0",
"G@	c #0075BA",
"H@	c #0074B7",
"I@	c #026EB3",
"J@	c #0659A4",
"K@	c #134A96",
"L@	c #08112A",
"M@	c #010413",
"N@	c #020614",
"O@	c #010815",
"P@	c #0B1B37",
"Q@	c #14337E",
"R@	c #104D98",
"S@	c #0281BF",
"T@	c #028BC8",
"U@	c #0073B6",
"V@	c #006DB3",
"W@	c #016EB4",
"X@	c #017FBE",
"Y@	c #0274B8",
"Z@	c #0087C4",
"`@	c #0370B3",
" #	c #0C4E9D",
".#	c #1A3F91",
"+#	c #1B3C8E",
"@#	c #1A3F8F",
"##	c #030C17",
"$#	c #030A18",
"%#	c #050D1D",
"&#	c #0B2049",
"*#	c #152F7E",
"=#	c #0B71AF",
"-#	c #026DB3",
";#	c #0181C0",
">#	c #0388C6",
",#	c #016EB3",
"'#	c #0187C4",
")#	c #0372B4",
"!#	c #0F4E9A",
"~#	c #1B3E8F",
"{#	c #1B3D8E",
"]#	c #020714",
"^#	c #010614",
"/#	c #030819",
"(#	c #142E6F",
"_#	c #0F4A93",
":#	c #036CB0",
"<#	c #016CB2",
"[#	c #0567AD",
"}#	c #124A97",
"|#	c #1A3E90",
"1#	c #1C3E8F",
"2#	c #01040E",
"3#	c #020513",
"4#	c #020713",
"5#	c #061532",
"6#	c #153180",
"7#	c #0F5AA1",
"8#	c #0275BA",
"9#	c #027CBE",
"0#	c #026FB5",
"a#	c #0475B9",
"b#	c #0478B8",
"c#	c #066DB0",
"d#	c #076EAF",
"e#	c #0C62A5",
"f#	c #0F509B",
"g#	c #0D4B96",
"h#	c #1D3D90",
"i#	c #030A1A",
"j#	c #030714",
"k#	c #0F2863",
"l#	c #13307B",
"m#	c #13498B",
"n#	c #134288",
"o#	c #124084",
"p#	c #113D81",
"q#	c #14347D",
"r#	c #15317B",
"s#	c #15327A",
"t#	c #143076",
"u#	c #143177",
"v#	c #14337D",
"w#	c #133A87",
"x#	c #153481",
"y#	c #1A3E8F",
"z#	c #020A18",
"A#	c #01030E",
"B#	c #000309",
"C#	c #00050F",
"D#	c #091830",
"E#	c #13234F",
"F#	c #102758",
"G#	c #122E63",
"H#	c #112B68",
"I#	c #0D2962",
"J#	c #0C2456",
"K#	c #0A204D",
"L#	c #0A1A41",
"M#	c #071536",
"N#	c #05102C",
"O#	c #05122E",
"P#	c #0B1B3D",
"Q#	c #10224C",
"R#	c #1A3887",
"S#	c #1A3F90",
"T#	c #2B3C7D",
"U#	c #030918",
"V#	c #020610",
"W#	c #061121",
"X#	c #030919",
"Y#	c #000206",
"Z#	c #010102",
"`#	c #010202",
" $	c #010302",
".$	c #000202",
"+$	c #000101",
"@$	c #000201",
"#$	c #000205",
"$$	c #0B142A",
"%$	c #142D6E",
"&$	c #1A3C8D",
"*$	c #243674",
"=$	c #020C1C",
"-$	c #071121",
";$	c #050E1D",
">$	c #010301",
",$	c #010201",
"'$	c #01050B",
")$	c #0E1F44",
"!$	c #020913",
"~$	c #010205",
"{$	c #0F151F",
"]$	c #000305",
"^$	c #010303",
"/$	c #010203",
"                                                                                                    ",
"                                                                                                    ",
"                                                                                                    ",
"                                                                                                    ",
"                                                                                                    ",
"                                                                                                    ",
"                                                                                                    ",
"                                                                                                    ",
"                                                                                                    ",
"                                                                                                    ",
"                                            . + @ # $ % #                                           ",
"                                      & * * = + - ; > % , , , '                                     ",
"                                  ) ! # ~ + , { { $ $ $ , $ ~ ] ^                                   ",
"                                  / ( _ : + , < [ , } + + , ] | 1 2 1                               ",
"                                3 4 5 6 7 8 9 0 a b c d e f g h i j k l                             ",
"                              m n o p q r s t 5 u v w x y z A B C D k E F                           ",
"                            G H I J K L M N O P Q R S T U V W X Y Z `  ...+.                        ",
"                          @.#.$.%.&.*.=.-.;.>.,.'.;.).!.~.{.].G ^./.(._.2 :.                        ",
"                          <.[.}.|.1.2.3.4.U 5.6.7.8.9.0.a.6.b.c.d.e.f...g.1 h.                      ",
"                        i.j.k.l.m.].;.7.n.o.M p.q.8.r.s.t.u.v.w.x.y.z.! ..A.B.                      ",
"                        C.D.E.F.G.H.I.J.K.L.I.M.N.O.M v.P.Q.R.S.T.U.V.W.X.Y.Z.`.                    ",
"                       +.+++@+#+$+{.9.s.w.%+M &+s.N.*+U =+-+;+a.4.>+,+'+)+!+~+{+                    ",
"                      ]+I ^+/+(+_+:+8.7.<+[+}+M 7.|+1+9.;+2+3+w.4+5+6+7+8+9+!+0+                    ",
"                      a+b+c+d+G.e+:+,.5+f+g+h+i+j+k+l+m+n+,.*+M o+p+q+r+s+t+u+v+                    ",
"                      w+x+y+z+A+%+B+C+5.o+p+D+E+F+G+H+I+J+K+L+M+=.M+N+O+P+Q+R+S+                    ",
"                      T+U+V+W+X+Y+O.K+t.u.0.i+Z+`+ @.@+@@@t.#@$@<+%@&@*@=@-@;@>@                    ",
"                      ,@'@)@!@~@{@]@;.C+^@;+/@(@_@:@<@[@}@#@b.|@g+1@2@3@4@. 5@6@                    ",
"                        7@8@9@0@a@b@c@d@e@b.&+f@g@h@i@j@k@l@m@n@o@p@q@r@s@t@u@                      ",
"                        v@w@x@y@z@A@B@Q C@D@6.w.1+E@F@M 4.G@H@{.I@J@K@@ : ; ;@                      ",
"                        L@M@N@O@P@Q@R@S@%+T@U@V@w.W@q.X@Y@b.Z@H@`@ #.#; 6@+#@#                      ",
"                          ##)@$#%#&#*#=#-#h+U@;#T o+6.f+>#,#'#].)#!#@#~#{#{#                        ",
"                          ]#)@)@^#/#(#_#:#6.w.H.C+C+{.<#q.|@5+[#}#|#{#1## ~#                        ",
"                            7@2#3#4#5#6#7#S@#+8#9#0#a#b#c#d#e#f#g#|#{#h#+#                          ",
"                              )@i#j#N@k#l#m#n#o#p#q#r#s#t#u#v#w#x#y#* ~ +#                          ",
"                              z#A#B#C#D#E#F#G#H#I#J#K#L#M#N#O#P#Q#R#S#+#T#                          ",
"                                U#V#^#W#X#Y#Z#`# $ $.$+$@$@$@$#$$$%$&$*$                            ",
"                                  =$-$;$Y#@$>$ $`#,$`#`#`# $ $ $'$)$                                ",
"                                      !$~$@$`#@$@$@$`# $ $ $ $ $                                    ",
"                                        {$]$.$@$@$@$ $^$/$`#                                        ",
"                                                                                                    ",
"                                                                                                    ",
"                                                                                                    ",
"                                                                                                    ",
"                                                                                                    ",
"                                                                                                    ",
"                                                                                                    ",
"                                                                                                    ",
"                                                                                                    ",
"                                                                                                    ",
"                                                                                                    "};
