/* XPM */
static char * exit_close_xpm[] = {
"50 50 374 2",
"  	c #3A3B3D",
". 	c #3B3B3C",
"+ 	c #858688",
"@ 	c #6E6F71",
"# 	c #606163",
"$ 	c #58595B",
"% 	c #525355",
"& 	c #454648",
"* 	c #343537",
"= 	c #505050",
"- 	c #535456",
"; 	c #48494B",
"> 	c #2D2E2F",
", 	c #3D3E3F",
"' 	c #5D5E60",
") 	c #555658",
"! 	c #444547",
"~ 	c #272828",
"{ 	c #4F4F51",
"] 	c #424345",
"^ 	c #313133",
"/ 	c #222222",
"( 	c #545557",
"_ 	c #515254",
": 	c #3F4042",
"< 	c #393A3C",
"[ 	c #464647",
"} 	c #6B6C6E",
"| 	c #6A6B6D",
"1 	c #696A6C",
"2 	c #595A5C",
"3 	c #434446",
"4 	c #343435",
"5 	c #474748",
"6 	c #848588",
"7 	c #5E5F61",
"8 	c #57585A",
"9 	c #38393B",
"0 	c #393A3B",
"a 	c #7B7C7E",
"b 	c #636466",
"c 	c #505153",
"d 	c #47484A",
"e 	c #404143",
"f 	c #303030",
"g 	c #2D2D2D",
"h 	c #38383A",
"i 	c #4D4E4F",
"j 	c #535355",
"k 	c #424344",
"l 	c #3B3C3D",
"m 	c #323333",
"n 	c #2C2C2D",
"o 	c #3B3B3B",
"p 	c #464748",
"q 	c #353637",
"r 	c #232324",
"s 	c #212121",
"t 	c #4A4B4E",
"u 	c #414244",
"v 	c #4C4D4F",
"w 	c #303131",
"x 	c #626365",
"y 	c #3B3C3E",
"z 	c #4F5052",
"A 	c #46484A",
"B 	c #3B3D40",
"C 	c #37383A",
"D 	c #454546",
"E 	c #78797B",
"F 	c #4E4F51",
"G 	c #343434",
"H 	c #565759",
"I 	c #2D2D2E",
"J 	c #606162",
"K 	c #7C7D7F",
"L 	c #737476",
"M 	c #616264",
"N 	c #333435",
"O 	c #6F7072",
"P 	c #5F6062",
"Q 	c #363739",
"R 	c #5A5B5D",
"S 	c #2A2B2B",
"T 	c #666769",
"U 	c #252525",
"V 	c #3C3D3D",
"W 	c #515253",
"X 	c #313131",
"Y 	c #343334",
"Z 	c #5E5F60",
"` 	c #656567",
" .	c #5C5D5F",
"..	c #3E3F41",
"+.	c #2A2A2A",
"@.	c #434444",
"#.	c #68696B",
"$.	c #4D4E50",
"%.	c #2E2F30",
"&.	c #3F4041",
"*.	c #444446",
"=.	c #434445",
"-.	c #313234",
";.	c #1A1A1A",
">.	c #2D2E2E",
",.	c #2A2B2C",
"'.	c #262626",
").	c #29292A",
"!.	c #2A2A2B",
"~.	c #282829",
"{.	c #49494B",
"].	c #373839",
"^.	c #2B2B2B",
"/.	c #707071",
"(.	c #272727",
"_.	c #67686A",
":.	c #5B5C5E",
"<.	c #353638",
"[.	c #5A5B5C",
"}.	c #494A4C",
"|.	c #3E3E40",
"1.	c #252526",
"2.	c #474747",
"3.	c #58595A",
"4.	c #4E4E50",
"5.	c #494A4B",
"6.	c #1E1E1F",
"7.	c #000000",
"8.	c #020202",
"9.	c #040404",
"0.	c #060607",
"a.	c #080809",
"b.	c #0F0F0F",
"c.	c #404142",
"d.	c #383A3C",
"e.	c #5C5D5E",
"f.	c #343436",
"g.	c #202020",
"h.	c #242525",
"i.	c #414243",
"j.	c #555659",
"k.	c #38393A",
"l.	c #3C3C3D",
"m.	c #3E4041",
"n.	c #2A292C",
"o.	c #292A2B",
"p.	c #222324",
"q.	c #2E2F2F",
"r.	c #232323",
"s.	c #474848",
"t.	c #464749",
"u.	c #313233",
"v.	c #434344",
"w.	c #6D6D6F",
"x.	c #39393A",
"y.	c #212223",
"z.	c #010101",
"A.	c #1C1D1E",
"B.	c #575859",
"C.	c #4A4B4D",
"D.	c #383A3B",
"E.	c #3D3E40",
"F.	c #262627",
"G.	c #2E2E2F",
"H.	c #444445",
"I.	c #373838",
"J.	c #2C2D2D",
"K.	c #6C6D6F",
"L.	c #0D0D0D",
"M.	c #454647",
"N.	c #242424",
"O.	c #444545",
"P.	c #343535",
"Q.	c #222223",
"R.	c #747577",
"S.	c #828385",
"T.	c #4A4B4C",
"U.	c #303031",
"V.	c #505152",
"W.	c #363637",
"X.	c #797A7C",
"Y.	c #808183",
"Z.	c #646567",
"`.	c #48484A",
" +	c #707173",
".+	c #4B4C4E",
"++	c #3C3D3F",
"@+	c #757678",
"#+	c #47484B",
"$+	c #2F3132",
"%+	c #303132",
"&+	c #222323",
"*+	c #4A4C4E",
"=+	c #404042",
"-+	c #29292B",
";+	c #37393A",
">+	c #0C0D0E",
",+	c #232425",
"'+	c #2F3031",
")+	c #444546",
"!+	c #3E3F40",
"~+	c #3F3F40",
"{+	c #3C3D3E",
"]+	c #2F2F30",
"^+	c #2F2F2F",
"/+	c #727475",
"(+	c #767779",
"_+	c #222220",
":+	c #1F1F1F",
"<+	c #333334",
"[+	c #3F3F41",
"}+	c #3A3B3C",
"|+	c #2B2B2D",
"1+	c #323232",
"2+	c #3C3C3C",
"3+	c #7C7D7E",
"4+	c #7E7F81",
"5+	c #727375",
"6+	c #494B4C",
"7+	c #010001",
"8+	c #37383B",
"9+	c #696A6B",
"0+	c #535455",
"a+	c #121313",
"b+	c #272728",
"c+	c #5D5E5F",
"d+	c #000001",
"e+	c #28292A",
"f+	c #131314",
"g+	c #131414",
"h+	c #484849",
"i+	c #404041",
"j+	c #59595B",
"k+	c #0B0C0C",
"l+	c #4B4B4C",
"m+	c #5C5C5E",
"n+	c #656668",
"o+	c #2E2E2E",
"p+	c #58585A",
"q+	c #313232",
"r+	c #282929",
"s+	c #1D1D1E",
"t+	c #111212",
"u+	c #4D4F51",
"v+	c #414142",
"w+	c #323233",
"x+	c #505051",
"y+	c #5E5F5F",
"z+	c #353535",
"A+	c #545555",
"B+	c #5E5E60",
"C+	c #4B4C4D",
"D+	c #2F3030",
"E+	c #6A6A6C",
"F+	c #7D7E80",
"G+	c #050505",
"H+	c #030303",
"I+	c #6B6D6F",
"J+	c #77787A",
"K+	c #6E7072",
"L+	c #5F6162",
"M+	c #3A3A3C",
"N+	c #5A5A5D",
"O+	c #2C2D2F",
"P+	c #4D4D50",
"Q+	c #56575A",
"R+	c #414143",
"S+	c #434345",
"T+	c #28282A",
"U+	c #3A3A3B",
"V+	c #323234",
"W+	c #6E6E70",
"X+	c #555557",
"Y+	c #757577",
"Z+	c #5D5D5F",
"`+	c #494B4A",
" @	c #7A7B7D",
".@	c #3D3D3E",
"+@	c #69696B",
"@@	c #49494A",
"#@	c #6D6F6E",
"$@	c #040505",
"%@	c #747576",
"&@	c #676769",
"*@	c #101111",
"=@	c #464648",
"-@	c #3F4142",
";@	c #3D3D3F",
">@	c #39393B",
",@	c #7A7B7C",
"'@	c #6F7071",
")@	c #545556",
"!@	c #4D4D4F",
"~@	c #202122",
"{@	c #78787A",
"]@	c #6D6E70",
"^@	c #48494A",
"/@	c #4E4F50",
"(@	c #848587",
"_@	c #272829",
":@	c #2A2B2D",
"<@	c #4A4A4B",
"[@	c #6D6E6F",
"}@	c #595A5B",
"|@	c #646465",
"1@	c #323335",
"2@	c #383839",
"3@	c #373A3C",
"4@	c #343536",
"5@	c #585A5C",
"6@	c #4E5052",
"7@	c #393A3A",
"8@	c #424242",
"9@	c #575757",
"0@	c #010102",
"a@	c #1C1C1C",
"b@	c #4F5053",
"c@	c #555657",
"d@	c #0C0D0D",
"e@	c #555759",
"f@	c #161717",
"g@	c #565758",
"h@	c #838486",
"i@	c #6F6F71",
"j@	c #4A4A4C",
"k@	c #454749",
"l@	c #1A1A1B",
"m@	c #626264",
"n@	c #6A6B6C",
"o@	c #363738",
"p@	c #4D4F50",
"q@	c #474849",
"r@	c #333434",
"s@	c #1B1C1C",
"t@	c #6C6D6E",
"u@	c #565859",
"v@	c #454747",
"w@	c #757677",
"x@	c #515153",
"y@	c #353738",
"z@	c #7F8082",
"A@	c #6B6B6E",
"B@	c #706F70",
"C@	c #6B6B6D",
"D@	c #686A6C",
"E@	c #595B5C",
"F@	c #414547",
"G@	c #0D0F11",
"H@	c #121213",
"I@	c #2F3131",
"J@	c #515454",
"K@	c #5C5E5E",
"L@	c #686B6C",
"M@	c #707374",
"N@	c #777B7D",
"O@	c #7F8385",
"P@	c #868988",
"Q@	c #8C9193",
"R@	c #919798",
"S@	c #999D9D",
"T@	c #9DA3A4",
"U@	c #A3A8AB",
"V@	c #A8AEB0",
"W@	c #AFB4B6",
"X@	c #B2B9BB",
"Y@	c #B7BDBF",
"Z@	c #A8AFB5",
"`@	c #9EA4AF",
" #	c #7D8186",
".#	c #6C6C6F",
"+#	c #7B7B7B",
"@#	c #717375",
"##	c #6A6B6E",
"$#	c #68696A",
"  . + @ # $ $ % & * = - ; > , ' ) ! ~ { ] ^ / ( _ & : < [ } | 1 2 $ $ $ $ _ 3 4 2 ( ! < 5 6 } 7 $ 8 ",
"9 0 a b $ c d e   f g h i j k l m n o p q r s t u 3 v : w 1 1 x 2 $ $ 2 - ; y n z A B C D E x $ F d ",
"G ~ | # $ H % ! < I s J K L M $ ) N O P $ l s e Q R c ] S M T $ $ $ $ $ ; 3 9 U V W ! X Y | Z $ H _ ",
"u / `  .$ $ $ v ..+.@.#.M x R $ $.%.&.*.=.-.;.>.,.'.).!.~.{.) - ( H 8 $ F y ].^./.7 H , (._.:.$ $ 2 ",
"<.s [.2 $ $ $ }.|.1.2.3.8 _ 4.5.6.7.7.7.7.7.7.7.7.7.7.7.7.7.8.9.0.a.b.c.& d.Q g e.$.u f.g.7 $ $ $ $ ",
"h.s i.j.( % $.! k./ s '.4 l.m.n.7.7.7.7.7.7.7.7.7.7.7.7.7.7.7.7.7.7.7.8.o.9 C p.~.q.I r.s s.) ( % v ",
"$.l o.& t.& ..d.u.v.w.Z , x.y.z.7.7.7.7.7.7.7.7.7.7.7.7.7.7.7.7.7.7.7.7.z.A.5.B.R 8 $ C.D.g p t.! E.",
"}.u F.G.H.I.S J.i.O K.| ' _ L.7.7.7.7.7.7.7.7.7.7.7.7.7.7.7.7.7.7.7.7.7.7.z.M.1 2 $ $ ; : N.w O.P.!.",
"& 9 Q.R.S.#.T.U.V.7 2 R 8 G.7.7.7.7.7.7.7.7.7.7.7.7.7.7.7.7.7.7.7.7.7.7.7.7.7.W.8 8 _ ! Q U X.Y.Z.`.",
"E.9 '. +1 ' .+q ..$.% % &.7.7.7.7.7.7.7.7.7.7.7.7.7.7.7.7.7.7.7.7.7.7.7.7.7.7.z.; C.] ++C (.@+#.:.#+",
"$+%+&+e $.*+=+-+I I u.;+>+7.7.7.7.7.7.7.7.7.7.7.7.7.7.7.7.7.7.7.7.7.7.7.7.7.7.7.,+: u.%+'+y.)+$.T.!+",
"~+D {+n N ]+^+e./+(+Z._+7.7.7.7.7.7.7.7.7.7.7.7.7.7.7.7.7.7.7.7.7.7.7.7.7.7.7.7.8.:+<+[+M.}+|+4 >.1+",
"2 $ d 9 F.2+3+4+5+Z.6+7+7.7.7.7.7.7.7.7.7.7.7.7.7.7.7.7.7.7.7.7.7.7.7.7.7.7.7.7.7.H.#.$ 8 & 8+U *.4+",
"$ $ d 9 +.9+@+T :.0+a+7.7.7.7.7.7.7.7.7.7.7.7.7.7.7.7.7.7.7.7.7.7.7.7.7.7.7.7.7.7.6.P $ 8 & 9 b+ +5+",
"$ - & < ^.c+#.2 $ %.7.7.7.7.7.7.7.7.7.7.7.7.7.7.7.7.7.7.7.7.7.7.7.7.7.7.7.7.7.7.7.d+t.$ _ ! 9 ~.b _.",
"$.d u 9 f 0+b $ ! 7.7.7.7.7.7.7.7.7.7.7.7.7.7.7.7.7.7.7.7.7.7.7.7.7.7.7.7.7.7.7.7.7.e+.+d e 9 >.$ # ",
"u y Q E.+.T. .0+f+7.7.7.7.7.7.7.7.7.7.7.7.7.7.7.7.7.7.7.7.7.7.7.7.7.7.7.7.7.7.7.7.7.g+e }+]., ~ c :.",
"h+:.R ) i+2+j+0 7.7.7.7.7.7.7.7.7.7.7.7.7.7.7.7.7.7.7.7.7.7.7.7.7.7.7.7.7.7.7.7.7.7.k+l+m+2 - {+i.$ ",
"n+R ) }.{+o+p+'+7.7.7.7.7.7.7.7.7.7.7.7.7.7.7.7.7.7.7.7.7.7.7.7.7.7.7.7.7.7.7.7.7.7.6.# R ( ;   q+$ ",
"% .+] < ^ r+|.s+7.7.7.7.7.7.7.7.7.7.7.7.7.7.7.7.7.7.7.7.7.7.7.7.7.7.7.7.7.7.7.7.7.7.t+u+C.u 9 U.~ v+",
"w+4 x+y+2 $.<.a.7.7.7.7.7.7.7.7.7.7.7.7.7.7.7.7.7.7.7.7.7.7.7.7.7.7.7.7.7.7.7.7.7.7.9.'+z+A+B+$ C+w+",
"D+E+F+| 2 z |.G+7.7.7.7.7.7.7.7.7.7.7.7.7.7.7.7.7.7.7.7.7.7.7.7.7.7.7.7.7.7.7.7.7.7.H+,.O a #.2 F ++",
"I+J+| M $ _ c.8.7.7.7.7.7.7.7.7.7.7.7.7.7.7.7.7.7.7.7.7.7.7.7.7.7.7.7.7.7.7.7.7.7.7.7.K.@+| P $ z u ",
"K+P :.$ $ $.: 7.7.7.7.7.7.7.7.7.7.7.7.7.7.7.7.7.7.7.7.7.7.7.7.7.7.7.7.7.7.7.7.7.7.7.7.M P :.$ $ .+! ",
"L+$ $ $ - t.M+7.7.7.7.7.7.7.7.7.7.7.7.7.7.7.7.7.7.7.7.7.7.7.7.7.7.7.7.7.7.7.7.7.7.7.7.W $ $ $ _ t.u ",
"N+8 - F t.u O+7.7.7.7.7.7.7.7.7.7.7.7.7.7.7.7.7.7.7.7.7.7.7.7.7.7.7.7.7.7.7.7.7.7.7.7.P+Q+% F t.R+< ",
"{+  ! S+C 0 T+7.7.7.7.7.7.7.7.7.7.7.7.7.7.7.7.7.7.7.7.7.7.7.7.7.7.7.7.7.7.7.7.7.7.7.7.m y & u <.U+V+",
"W+' $.h X+Y+_ 7.7.7.7.7.7.7.7.7.7.7.7.7.7.7.7.7.7.7.7.7.7.7.7.7.7.7.7.7.7.7.7.7.7.7.7.$  .v q Z+L j+",
"i C.& `+ @| H 7.7.7.7.7.7.7.7.7.7.7.7.7.7.7.7.7.7.7.7.7.7.7.7.7.7.7.7.7.7.7.7.7.7.7.7..@T.! c X.|  .",
"+@@@G.#@5+| ' $@7.7.7.7.7.7.7.7.7.7.7.7.7.7.7.7.7.7.7.7.7.7.7.7.7.7.7.7.7.7.7.7.7.7.7.p p n %@ +| # ",
"P 8 =+M | 1 8 t+7.7.7.7.7.7.7.7.7.7.7.7.7.7.7.7.7.7.7.7.7.7.7.7.7.7.7.7.7.7.7.7.7.7.7.5.H ++&@1 #.2 ",
"H 8 ! u H % .+*@7.7.7.7.7.7.7.7.7.7.7.7.7.7.7.7.7.7.7.7.7.7.7.7.7.7.7.7.7.7.7.7.7.7.7.$.H u =@) _ .+",
"-@*.!+^ 3 ++9 f+7.7.7.7.7.7.7.7.7.7.7.7.7.7.7.7.7.7.7.7.7.7.7.7.7.7.7.7.7.7.7.7.7.7.H+;@*.++V+*.l >@",
",@'@)@!@d F t.~@7.7.7.7.7.7.7.7.7.7.7.7.7.7.7.7.7.7.7.7.7.7.7.7.7.7.7.7.7.7.7.7.7.7.b+{@]@_ v ^@/@t.",
"(@Y.} 1 R ) t._@7.7.7.7.7.7.7.7.7.7.7.7.7.7.7.7.7.7.7.7.7.7.7.7.7.7.7.7.7.7.7.7.7.7.V (@4+| 1 2 - t.",
" +K.| M $ $ d O+7.7.7.7.7.7.7.7.7.7.7.7.7.7.7.7.7.7.7.7.7.7.7.7.7.7.7.7.7.7.7.7.7.7.i. +} | P $ 8 t.",
"_.#.# $ $ _ t.%.7.7.7.7.7.7.7.7.7.7.7.7.7.7.7.7.7.7.7.7.7.7.7.7.7.7.7.7.7.7.7.7.7.7.M.#.#.P $ $ c t.",
"z $ $ H F t.e :@7.7.7.7.7.7.7.7.7.7.7.7.7.7.7.7.7.7.7.7.7.7.7.7.7.7.7.7.7.7.7.7.7.7.k._ $ $ H $.t.&.",
"P x.<@t.& : 9 %.7.7.7.7.7.7.7.7.7.7.7.7.7.7.7.7.7.7.7.7.7.7.7.7.7.7.7.7.7.7.7.7.7.8.[@}@}+C.t.t...9 ",
"| |@=.Q y < 9 1@z.7.7.7.7.7.7.7.7.7.7.7.7.7.7.7.7.7.7.7.7.7.7.7.7.7.7.7.7.7.7.7.7.G+n+| M c.2@{+9 3@",
":.R 2 _ 4@k.9 <+z.7.7.7.7.7.7.7.7.7.7.7.7.7.7.7.7.7.7.7.7.7.7.7.7.7.7.7.7.7.7.7.7.g+# R R 5@6@w+7@k.",
"8 % 8 _ l 8@9@i+0@7.7.7.7.7.7.7.7.7.7.7.7.7.7.7.7.7.7.7.7.7.7.7.7.7.7.7.7.7.7.7.7.a@_ 8 % 8 b@].p c@",
"! C.! u T.(+K.R d@7.7.7.7.7.7.7.7.7.7.7.7.7.7.7.7.7.7.7.7.7.7.7.7.7.7.7.7.7.7.7.7.k p+t.}.! e z J+| ",
"| e   * x x 2 e@f@7.7.7.7.7.7.7.7.7.7.7.7.7.7.7.7.7.7.7.7.7.7.7.7.7.7.7.7.7.7.7.7.g@h@Z...< 9 Z.M 2 ",
"(@i@j@u.- F v k@l@7.7.7.7.7.7.7.7.7.7.7.7.7.7.7.7.7.7.7.7.7.7.7.7.7.7.7.7.7.7.7.7.m@(@(@n@[ o@0+p@v ",
"(@E 1 $ q@I.w+r@s@7.7.7.7.7.7.7.7.7.7.7.7.7.7.7.7.7.7.7.7.7.7.7.7.7.7.7.7.7.7.7.7.t@(@(@(+1 u@v@o@q+",
"(@ @| Z.$ ( d   :+7.7.7.7.7.7.7.7.7.7.7.7.7.7.7.7.7.7.7.7.7.7.7.7.7.7.7.7.7.7.7.7.w@(@(@E | x $ - t.",
"(@E | | :.$ 8 }.:@7.7.7.7.7.7.7.7.7.7.7.7.7.7.7.7.7.7.7.7.7.7.7.7.7.7.7.7.7.7.7.l@4+(@(@@+| 1 R $ H ",
"Y.]@| | 7 $ $ x@y@7.7.7.7.7.7.7.7.7.7.7.7.7.7.7.7.7.7.7.7.7.7.7.7.7.7.7.7.7.7.7.W (@(@z@K.| |  .$ $ ",
"A@B@C@D@E@$ 3.X+F@G@7.7.7.7.7.7.7.H@I@=.J@K@L@M@N@O@P@Q@R@S@T@U@V@W@X@Y@Z@`@ #.#+#X.@#n@##| $#2 $ $ "};
