/* XPM */
static char * Screenshot from 2023_11_07 17_12_34_xpm[] = {
"50 50 211 2",
"  	c #979797",
". 	c #989898",
"+ 	c #999999",
"@ 	c #9A9A9A",
"# 	c #8F8F8F",
"$ 	c #707070",
"% 	c #4D4D4D",
"& 	c #404040",
"* 	c #3F3F3F",
"= 	c #424242",
"- 	c #353535",
"; 	c #333333",
"> 	c #3E3E3E",
", 	c #3B3B3B",
"' 	c #494949",
") 	c #666666",
"! 	c #8A8A8A",
"~ 	c #939393",
"{ 	c #9B9B9B",
"] 	c #7F7F7F",
"^ 	c #585858",
"/ 	c #414141",
"( 	c #3D3D3D",
"_ 	c #383838",
": 	c #3C3C3C",
"< 	c #3A3A3A",
"[ 	c #373737",
"} 	c #393939",
"| 	c #363636",
"1 	c #606060",
"2 	c #8E8E8E",
"3 	c #858585",
"4 	c #696969",
"5 	c #464646",
"6 	c #454545",
"7 	c #2F2F2F",
"8 	c #343434",
"9 	c #313131",
"0 	c #2D2D2D",
"a 	c #292929",
"b 	c #474747",
"c 	c #5D5D5D",
"d 	c #868686",
"e 	c #9A999A",
"f 	c #989798",
"g 	c #9B9A9B",
"h 	c #888888",
"i 	c #6D6D6D",
"j 	c #575757",
"k 	c #434343",
"l 	c #2B2B2B",
"m 	c #2E2E2E",
"n 	c #303030",
"o 	c #2A2A2A",
"p 	c #929292",
"q 	c #727272",
"r 	c #4E4E4E",
"s 	c #252525",
"t 	c #323232",
"u 	c #444444",
"v 	c #545454",
"w 	c #8C8C8C",
"x 	c #9C9C9C",
"y 	c #7D7D7D",
"z 	c #5A5A5A",
"A 	c #272727",
"B 	c #1E1E1E",
"C 	c #636363",
"D 	c #777777",
"E 	c #6A6A6A",
"F 	c #5F5F5F",
"G 	c #505050",
"H 	c #7B7B7B",
"I 	c #828282",
"J 	c #232323",
"K 	c #1F1F1F",
"L 	c #757575",
"M 	c #8D8D8D",
"N 	c #606061",
"O 	c #4A4A4A",
"P 	c #4C4C4C",
"Q 	c #4B4B4B",
"R 	c #626262",
"S 	c #747474",
"T 	c #949494",
"U 	c #909090",
"V 	c #5B5B5B",
"W 	c #202020",
"X 	c #7C7C7C",
"Y 	c #A2A2A2",
"Z 	c #A7A7A7",
"` 	c #A3A3A3",
" .	c #9D9D9D",
"..	c #848484",
"+.	c #565656",
"@.	c #6E6E6E",
"#.	c #A5A5A5",
"$.	c #A9A9A9",
"%.	c #717171",
"&.	c #5C5C5C",
"*.	c #4A494A",
"=.	c #656565",
"-.	c #8B8B8B",
";.	c #A1A1A1",
">.	c #AAAAAA",
",.	c #A6A6A6",
"'.	c #959595",
").	c #646464",
"!.	c #595959",
"~.	c #484848",
"{.	c #4F4F4F",
"].	c #515151",
"^.	c #818181",
"/.	c #686868",
"(.	c #9F9F9F",
"_.	c #838383",
":.	c #797979",
"<.	c #6C6C6C",
"[.	c #2C2C2C",
"}.	c #A4A4A4",
"|.	c #9E9E9E",
"1.	c #969696",
"2.	c #959495",
"3.	c #919191",
"4.	c #7A7A7A",
"5.	c #787878",
"6.	c #767676",
"7.	c #737373",
"8.	c #ADADAD",
"9.	c #525252",
"0.	c #ABABAB",
"a.	c #ACACAC",
"b.	c #A0A0A0",
"c.	c #6B6B6B",
"d.	c #555555",
"e.	c #B6B6B6",
"f.	c #BABABA",
"g.	c #B7B7B7",
"h.	c #B1B1B1",
"i.	c #AFAFAF",
"j.	c #AFAEAF",
"k.	c #A8A7A8",
"l.	c #AEAEAE",
"m.	c #BCBCBC",
"n.	c #BDBDBD",
"o.	c #C0C0C0",
"p.	c #A8A8A8",
"q.	c #B0B0B0",
"r.	c #BEBEBE",
"s.	c #C2C2C2",
"t.	c #C9C9C9",
"u.	c #808080",
"v.	c #B2B2B2",
"w.	c #BFBFBF",
"x.	c #C4C4C4",
"y.	c #C8C8C8",
"z.	c #CCCCCC",
"A.	c #6F6F6F",
"B.	c #B3B3B3",
"C.	c #A6A5A6",
"D.	c #A09FA0",
"E.	c #B5B5B6",
"F.	c #CACACA",
"G.	c #D2D2D2",
"H.	c #D7D7D7",
"I.	c #CBCBCB",
"J.	c #908F90",
"K.	c #B8B8B8",
"L.	c #CECECE",
"M.	c #D9D9D9",
"N.	c #D3D3D3",
"O.	c #626263",
"P.	c #636364",
"Q.	c #D8D8D8",
"R.	c #9D9C9D",
"S.	c #878787",
"T.	c #5E5E5E",
"U.	c #B9B9B9",
"V.	c #D6D6D6",
"W.	c #C1C1C1",
"X.	c #9C9B9C",
"Y.	c #616161",
"Z.	c #242424",
"`.	c #BBBBBB",
" +	c #D4D4D4",
".+	c #9B9B9C",
"++	c #898989",
"@+	c #B5B5B5",
"#+	c #AAA9AA",
"$+	c #B4B4B4",
"%+	c #C3C3C3",
"&+	c #CDCDCD",
"*+	c #D5D5D5",
"=+	c #D1D1D1",
"-+	c #C6C6C6",
";+	c #D0D0D0",
">+	c #C9C8C9",
",+	c #ACABAC",
"'+	c #BDBCBD",
")+	c #676767",
"!+	c #C8C7C8",
"~+	c #7E7E7E",
"{+	c #999899",
"]+	c #878687",
"^+	c #8D8C8D",
"/+	c #C5C5C5",
"(+	c #4B4A4B",
"_+	c #6B6A6B",
":+	c #C0C0C1",
"<+	c #C7C7C7",
"[+	c #A3A2A3",
"  .   . + + . .   . . . . .   @ # $ % & * * = & - - ; > , , * > ' ) ! ~ + @ + . . . . + + + . . .   ",
"      . + + . . . { . . . + # ] ^ / ( , _ : ( < > [ } < ; | * , } / 1 2   @ @     + + @ @ @ . . . . ",
"      . + + . . + + { {   3 4 5 6 - 7 8 | ; 9 } : < 8 < 0 a 9 | _ ( b c d . . e f + + @ @ @ . . . . ",
"      . + + . . . + g h i j k ; _ | - 7 l m 9 8 , | [ 8 n o 0 8 _ < > ' ^ 3 + . . + + @ @ @ . . . . ",
". + + + @ @ @ @ @ + p q r ; 7 s l t m m : = / 6 : [ _ < [ , [ - 8 < , u v c w { @ @ @ { { { x { @ @ ",
". + + + @ @ @ @ @ . y z ( A B 7 , < k C D E F G * _ [ _ } > = k > u = & ^ F H . @ @ @ { { { x { @ @ ",
". + + + @ @ @ @ { I % u } J K ' E L M   + w L N O , 9 8 8 8 ( [ u O P b Q R S T @ @ @ { { { x { @ @ ",
"+ @ @ @ @ @ { { U V < : ; W = X   Y Z `  .p ..S c 6 | ; 7 9 - } / P j O & +.@.U + @ @ { { { { { { @ ",
"+ @ @ @ @ @ @ @ D u : ; 7 t i   #.$.Z Y  .~ ! ] %.&.r 6 = k / = O u u [ t *.F # + @ @ { { { { { { @ ",
"+ @ @ @ @ @ + . =./ k | m r -.;.Z >.,.;.x '.U w d q ).!.Q ' r ~.{.c ' ; 9 / ].^.. @ @ { { { { { { @ ",
"+ @ @ @ @ @ + '.z ( b n m /.+ Z Z Z ` (.{ . '.p U ! _.:.<.^ j C C ) 1 / } = r <.U + x { { { { { { { ",
"+ @ { @ @ @ . U G u 5 [./ ] }.>.Z }.Y |.{   '.T 1.2.3.2 h 4.5.6.<.) 7.z * ( ].) L @ @ { { { { { { { ",
"+ @ { x x { { p {.' k n ^ 1.$.8.Z Y ;.|.{ '.'.  + @ +   T h d ..L @.X <.O k 9.i 4 1.@ { { { { { { { ",
"@ { x x x { { 1.!.P & , H }.0.a.Z ;.b.|.x       + { |.{ + 1.{ }.#.Y b.2 c.~.d.i X 3. .x { { @ { { { ",
"{ { x x x x @ + c.5 u {.'.a.8.a.Z Y b.|.x .     @  .;.}.#.#.>.e.f.g.h.0.@ &.+.<.X p  . .x { @ @ x { ",
"{ { x x x x  .@ c.b % 4 ,.i.j.a.Z Y b.|.x .     { (.` #.k.0.l.g.m.f.n.o.h.X =.E c.T @  .x { @ @ x { ",
"x x x  . . .x @ %.' c ] p.h.q.a.Z ` ;.|.{ + + + |.;.` Y #.>.i.e.m.r.s.t.s.3.c.F u.+ { x x x { { x { ",
"x x  . . .x @  .X {.c.w }.q.h.i.0.,.}.;. .@ @ @ (.;.` (.` 8.v.g.w.x.y.z.z.l.A.$ ~ +  . . . .x x x { ",
"x x  . . . .{ x I c /.I { 8.B.i.>.C.` b. .@ @ @ (.;.` D.` a.h.E.n.x.F.G.H.I.3 J.|.{  .|.|.|.x x x { ",
"x x  . . . . . .I C V u.0.h.v.8.p.b.x + '.~ '.+ |.D.Y ` ` ,.Z ,.p.>.K.L.M.N.1.'. .x {  . . .x x x x ",
"{ x x x x  .x { I 1 ).3.q.i.i.8.x 3 H c.O.P.L h '.+ |.(. .3.y /.=.%.I Y I.Q.Z   {  .|.x x x x x x R.",
"{ x x x x x x |.h z 4 1.q.l.>.  6.) /.).^ c E H # '.{ b.+ S.i T.@.u.2 b.U.V.g.K.;. .{ x x x x x x R.",
"{ x x x x x x ,. .4 =.{ q.i.,.3._.6./.!.].5 ^ D 3.. ;.h.{ ).5 - O I M #.W.Q.m.(.b.|. .x x x { { X.x ",
"{ { x x x x b.T ;.3.D ;.q.>. .! L Y.].Z.> 9.= !.S.|.}.`.U ].{.; {.|.x }.n.V.W.~ Y |. .x x x { { { { ",
"{ { x x x x |.H |.'.^. .q.,.1.u.L 5.%.V V &.O ^ H + + v.|.=.j ).H Z W.r.`. +F.B.Y  .x x x x { { { { ",
"{ { .+x x x x y |.` I x q.$.{ # ! p # I 7.!.G F ++@ . >.U.H V 4 w 8.m.`.g.N.F.@+;.x { x x x { { { { ",
"{ { { { { { (.-.(.-.). .q.>.b.  ~ # -.u.@.).E ] 1.|.. #+L.B.2 ..1.p.$+g.w.N.%+i.x x x x x x { { { @ ",
"{ { { { { { { 1.S.$ y 1.q.a.,. .+ '.U d y u.d T  .x 2.$.G.&+i.` #.,.8.g.F.*+W.$+{ { x x x x { { { @ ",
"{ { { { { @ { b.! @.U 1.q.l.>.` (.+ T ! h d w . x . 2 g x.=+f.#.$.l.v.r.&+*+I.h.@ @ x x x x { { { @ ",
"@ @ { { { { @ |.` '.M w q.a.>.#.Y { . U 2 -.++-.3.|.U # h.s.>.Z 0.e.f.-+;+N.>+,.x x x { { { { { { @ ",
"@ @ { { { x { x Y v. .T ,+8.$.#.Y { 1.3.w 4.@.3.+ (.+   m.t.p.d Z g.W.t.N.N.'+;.@ @ @ { { { { { { @ ",
"@ @ { { { x { @ |.0.|.;.Z 8.p.#.Y @ T 2 ] =.).^./.@.# 3.#.1.x ^.p h.n.t. +L.,.@ @ @ @ g g g { { { @ ",
"{ { @ @ @ @ @ @ { b.b.|.Y $.Z #.Y + p ++L )+L q C ) H h  .(.#.'.U Z `.!+N.t.x @ @ @ @ + + + @ @ @ @ ",
"+ + @ @ @ @ @ @ + @ { + ` ` p.Y (.1.p ..$ i q i 4 4 A.A.3 M '.. T Y f.x.I.W.@ { @ @ @ @ @ @ @ @ @ @ ",
". . + @ @ @ @ @ @ x x    .|.b.(.x ~ M ~+%.E A.A.q 7.%.4 ^.++@   p Y K.W.%+K.e x @ @ @ { { { @ @ @ @ ",
"    . . . + { { { { { @ |.Y  .'.T ~ S.6.).i h ! ] I u.u.U x l.(...|.K.r.x.q.@ @ + .   . . . . . .   ",
"    . . . + @ @ @ { { { { b.x 1.T 3.S.%.+.v F ) Y.c T.1 c._.T 3 $   f.w.`.,.+ + + .   . . . . . .   ",
"    . . . . {+{++ { { { @ { x . p -.h 7.1 ] w h ..y 5.~+3.8.f.i.3 x f.`.$+x   . + .   . . . . . .   ",
"        . .     . + + @ x T (.+ 3.M ..7.c.I 3.T w u.7.5.2 v.n.i.2 x @+f.0.      1.1.1.              ",
"    1.  . .     . + + + + '.'.x 3.^.] 6.q H ++3.++H ) S 2 >.v.,.x x v.K.x       1.1.1.1.1.1.        ",
"    1.  . .       . . . + {+  2 ~ 3 h 3 ^.4.5.]+h H D :.  #.(. .p.$+B.l.        1.1.1.'.'.'.        ",
"            1.1.        + + { p ! 3 S.w 4.D H y ^.H 5.4.2 '.(.|.8.B.q.f.  1.1.1.1.1.1.'.'.'.1.1.1.1.",
"          1.1.1.1.      . + @ Y ^+M ! M 3 6.:.D S D X 6._.#   + }.$.`./+1.1.1.1.1.1.'.'.'.'.'.'.'.'.",
"'.'.'.'.'.'.1.1.1.      . + @ p. .! .._.D D D 6.A.7.6.6._.-.p }.@ a.I.W.~ T T T T T T '.'.'.'.'.'.T ",
"'.'.'.'.'.'.1.1.1.1.1.    1.  $.b.T H A.c.$ S i @.%.%.q 4.3 '.T + o.I.W.p ~ '.T '.'.'.T T T T T T T ",
"T '.'.'.'.'.1.1.1.1.1.'.1.f . $.(.1.-.q R Y.1 /.) =.<.$ 7.4...1.U.%+z.I.@ p 1.T T '.'.T T T ~ ~ ~ ~ ",
"~ T '.'.'.'.T T T T T T ~ '.|.q.#.(.~ ! q z 6 O ' Q (+{.]._+{ g.r.x.I.V.W.b.M ~ ~ ~ ~ T T T ~ ~ ~ ~ ",
"~ ~ T T '.T T '.'.~ T '.1.;.v.a.b.{   p d 4./.9.6 u ~.9.:.#.h.r.o.o.>+*+x.f.%.7.w T ~ ~ T T ~ ~ ~ ~ ",
"~ ~ ~ ~ T ~ p ~ ~ 3.~ { Y >.h.>.b.+ U 1.M h ~+q /.&.R D { 8.$+r.w.:+F.Q.<+v.1 b r S -.p T T p p ~ ~ ",
"p p p ~ ~ T ~ ~ 3 i (.p.>.a.8.$.[+. ~ # U U S.u.4.7.5.-.p.0.K.m.f.n.t. +&+{ ~.( 9 ' P )...U p p ~ ~ "};
