/* XPM */
static char * wall_xpm[] = {
"50 50 544 2",
"  	c #181818",
". 	c #1A1A1A",
"+ 	c #191919",
"@ 	c #1F1F1F",
"# 	c #1B1B1B",
"$ 	c #1C1C1C",
"% 	c #1B1A1A",
"& 	c #1C1A1B",
"* 	c #191819",
"= 	c #1F1D1E",
"- 	c #514F50",
"; 	c #5C5A5B",
"> 	c #595758",
", 	c #595858",
"' 	c #6B6A6B",
") 	c #8B8A8B",
"! 	c #929191",
"~ 	c #919091",
"{ 	c #919090",
"] 	c #909090",
"^ 	c #919191",
"/ 	c #B3B3B3",
"( 	c #DBDBDB",
"_ 	c #DCDCDC",
": 	c #DDDDDD",
"< 	c #777777",
"[ 	c #1D1D1D",
"} 	c #222222",
"| 	c #4A4A4A",
"1 	c #7F7F7F",
"2 	c #A3A3A3",
"3 	c #B2B2B2",
"4 	c #989898",
"5 	c #575757",
"6 	c #1E1E1E",
"7 	c #242424",
"8 	c #3F3F3F",
"9 	c #7A7A7A",
"0 	c #707070",
"a 	c #535353",
"b 	c #2F2E2F",
"c 	c #1B191A",
"d 	c #282627",
"e 	c #5D5B5C",
"f 	c #5F5D5E",
"g 	c #615F60",
"h 	c #666465",
"i 	c #828182",
"j 	c #918F90",
"k 	c #959394",
"l 	c #969495",
"m 	c #959495",
"n 	c #959595",
"o 	c #949494",
"p 	c #929292",
"q 	c #C0C0C0",
"r 	c #DEDEDE",
"s 	c #D7D7D7",
"t 	c #686868",
"u 	c #262626",
"v 	c #7B7B7B",
"w 	c #BCBCBC",
"x 	c #D9D9D9",
"y 	c #E1E1E1",
"z 	c #E0E0E0",
"A 	c #D6D6D6",
"B 	c #C8C8C8",
"C 	c #CBCBCB",
"D 	c #D4D4D4",
"E 	c #272727",
"F 	c #202020",
"G 	c #4E4E4E",
"H 	c #676666",
"I 	c #D5D4D4",
"J 	c #C5C3C4",
"K 	c #767575",
"L 	c #3D3A3B",
"M 	c #575556",
"N 	c #605E5F",
"O 	c #626061",
"P 	c #757374",
"Q 	c #888687",
"R 	c #949293",
"S 	c #979596",
"T 	c #999999",
"U 	c #D5D5D5",
"V 	c #9F9F9F",
"W 	c #DFDFDF",
"X 	c #BBBBBB",
"Y 	c #9C9C9C",
"Z 	c #AAAAAA",
"` 	c #9B9B9B",
" .	c #464646",
"..	c #212121",
"+.	c #5A5A5A",
"@.	c #636262",
"#.	c #A09E9F",
"$.	c #ACACAC",
"%.	c #C6C6C6",
"&.	c #DAD8D9",
"*.	c #D8D6D7",
"=.	c #6F6D6E",
"-.	c #221F20",
";.	c #211E1F",
">.	c #2F2D2E",
",.	c #444243",
"'.	c #535152",
").	c #5E5C5D",
"!.	c #706E6F",
"~.	c #969595",
"{.	c #B9B9B9",
"].	c #B1B1B1",
"^.	c #696969",
"/.	c #CCCCCC",
"(.	c #BEBFBE",
"_.	c #ABABAB",
":.	c #9A9A9A",
"<.	c #939393",
"[.	c #666666",
"}.	c #595959",
"|.	c #1E1D1D",
"1.	c #7F7D7E",
"2.	c #949394",
"3.	c #9F9D9E",
"4.	c #C0BEBF",
"5.	c #D0CECF",
"6.	c #BAB8B9",
"7.	c #757475",
"8.	c #393738",
"9.	c #252324",
"0.	c #201E1F",
"a.	c #1F1E1E",
"b.	c #323031",
"c.	c #5A5859",
"d.	c #908E8F",
"e.	c #989697",
"f.	c #8E8C8D",
"g.	c #878586",
"h.	c #8E8D8E",
"i.	c #706F70",
"j.	c #555354",
"k.	c #201F1F",
"l.	c #232122",
"m.	c #9A999A",
"n.	c #9D9C9C",
"o.	c #959494",
"p.	c #363536",
"q.	c #605D5E",
"r.	c #7B7979",
"s.	c #9A9899",
"t.	c #A6A4A5",
"u.	c #AFADAE",
"v.	c #B6B4B5",
"w.	c #BBB9BA",
"x.	c #B6B5B5",
"y.	c #403E3F",
"z.	c #333132",
"A.	c #636162",
"B.	c #737172",
"C.	c #6C6A6B",
"D.	c #676566",
"E.	c #5B595A",
"F.	c #2C2A2B",
"G.	c #585758",
"H.	c #797778",
"I.	c #555253",
"J.	c #5E5B5C",
"K.	c #747273",
"L.	c #929091",
"M.	c #939192",
"N.	c #9C9A9B",
"O.	c #464445",
"P.	c #1D1B1C",
"Q.	c #3B3A3B",
"R.	c #4A494A",
"S.	c #2E2C2D",
"T.	c #8D8B8C",
"U.	c #8F8D8E",
"V.	c #817F80",
"W.	c #484647",
"X.	c #393637",
"Y.	c #5F5C5D",
"Z.	c #6B696A",
"`.	c #8B898A",
" +	c #8C8A8B",
".+	c #767475",
"++	c #252425",
"@+	c #1A1819",
"#+	c #1E1C1D",
"$+	c #2D2B2C",
"%+	c #353334",
"&+	c #3C3A3B",
"*+	c #3F3D3E",
"=+	c #3E3C3D",
"-+	c #5C5B5C",
";+	c #585657",
">+	c #413F40",
",+	c #262425",
"'+	c #191718",
")+	c #828081",
"!+	c #7C7A7B",
"~+	c #302E2F",
"{+	c #424041",
"]+	c #6A6869",
"^+	c #6D6B6C",
"/+	c #656364",
"(+	c #525051",
"_+	c #3D3C3C",
":+	c #545253",
"<+	c #787677",
"[+	c #A7A5A6",
"}+	c #CFCDCE",
"|+	c #D4D2D3",
"1+	c #CAC8C9",
"2+	c #B9B8B9",
"3+	c #9D9B9C",
"4+	c #7A7979",
"5+	c #535252",
"6+	c #302F30",
"7+	c #8A8889",
"8+	c #7D7B7C",
"9+	c #414041",
"0+	c #212021",
"a+	c #1A1919",
"b+	c #A19FA0",
"c+	c #DDDBDC",
"d+	c #E0DEDF",
"e+	c #E1DFE0",
"f+	c #DFDDDE",
"g+	c #E2E0E1",
"h+	c #D7D6D7",
"i+	c #C7C5C6",
"j+	c #4D4B4C",
"k+	c #525151",
"l+	c #BDBBBC",
"m+	c #B2B0B1",
"n+	c #272526",
"o+	c #4C4A4B",
"p+	c #363435",
"q+	c #B5B3B4",
"r+	c #BEBCBD",
"s+	c #BFBDBE",
"t+	c #BCBBBC",
"u+	c #B9B7B8",
"v+	c #B3B1B2",
"w+	c #DEDCDD",
"x+	c #4A4849",
"y+	c #515050",
"z+	c #343233",
"A+	c #C6C4C5",
"B+	c #DCDADB",
"C+	c #D5D3D4",
"D+	c #A8A6A7",
"E+	c #363535",
"F+	c #242223",
"G+	c #2C2B2B",
"H+	c #858384",
"I+	c #454445",
"J+	c #313030",
"K+	c #2F2E2E",
"L+	c #C6C5C5",
"M+	c #D6D4D5",
"N+	c #DBD9DA",
"O+	c #CECCCD",
"P+	c #B1AFB0",
"Q+	c #3B3A3A",
"R+	c #777576",
"S+	c #4B494A",
"T+	c #908F8F",
"U+	c #A9A8A9",
"V+	c #B7B5B6",
"W+	c #D1CFD0",
"X+	c #727071",
"Y+	c #8F8E8F",
"Z+	c #999798",
"`+	c #A4A2A3",
" @	c #A3A1A2",
".@	c #A9A7A8",
"+@	c #AEACAD",
"@@	c #1E1D1E",
"#@	c #848283",
"$@	c #D9D7D8",
"%@	c #868485",
"&@	c #565455",
"*@	c #AAA9AA",
"=@	c #ADABAC",
"-@	c #CCCACB",
";@	c #939292",
">@	c #9B999A",
",@	c #C3C1C2",
"'@	c #525152",
")@	c #383637",
"!@	c #D7D5D6",
"~@	c #444343",
"{@	c #9F9E9F",
"]@	c #90908F",
"^@	c #969594",
"/@	c #878687",
"(@	c #232223",
"_@	c #686667",
":@	c #D2D0D1",
"<@	c #434142",
"[@	c #8C8B8C",
"}@	c #B4B2B3",
"|@	c #555455",
"1@	c #969593",
"2@	c #2B2A2A",
"3@	c #494748",
"4@	c #A5A3A4",
"5@	c #CDCBCC",
"6@	c #211F20",
"7@	c #646263",
"8@	c #898888",
"9@	c #454344",
"0@	c #838182",
"a@	c #373637",
"b@	c #222021",
"c@	c #807E7F",
"d@	c #9A9999",
"e@	c #4F4D4E",
"f@	c #C2C0C1",
"g@	c #AAA8A9",
"h@	c #D3D2D3",
"i@	c #484747",
"j@	c #D3D1D2",
"k@	c #1D1C1C",
"l@	c #7E7C7D",
"m@	c #A2A0A1",
"n@	c #818080",
"o@	c #8D8D8C",
"p@	c #706F6F",
"q@	c #717070",
"r@	c #C9C7C8",
"s@	c #A9A8A8",
"t@	c #4B4A4B",
"u@	c #343334",
"v@	c #898788",
"w@	c #4C4B4B",
"x@	c #3B393A",
"y@	c #2B292A",
"z@	c #575756",
"A@	c #898886",
"B@	c #8B8A8A",
"C@	c #4F4E4F",
"D@	c #3F3E3E",
"E@	c #555453",
"F@	c #6E6D6B",
"G@	c #959492",
"H@	c #C8C6C7",
"I@	c #C7C6C7",
"J@	c #565555",
"K@	c #666565",
"L@	c #8D8C8C",
"M@	c #555454",
"N@	c #5E5D5B",
"O@	c #7F7E7C",
"P@	c #969494",
"Q@	c #ABA9AA",
"R@	c #3F3E3F",
"S@	c #504E4F",
"T@	c #716F70",
"U@	c #262526",
"V@	c #565655",
"W@	c #5F5E5C",
"X@	c #797876",
"Y@	c #92918F",
"Z@	c #979694",
"`@	c #383738",
" #	c #212020",
".#	c #292728",
"+#	c #656462",
"@#	c #7D7C7A",
"##	c #908F8D",
"$#	c #949391",
"%#	c #9E9C9D",
"&#	c #2B2A2B",
"*#	c #4A4949",
"=#	c #545353",
"-#	c #969596",
";#	c #474646",
">#	c #605E5D",
",#	c #5F5E5D",
"'#	c #5E5D5C",
")#	c #5D5C5B",
"!#	c #605F5E",
"~#	c #6E6C6B",
"{#	c #7D7C7B",
"]#	c #898887",
"^#	c #8F8E8D",
"/#	c #929090",
"(#	c #ACAAAB",
"_#	c #D9D7D7",
":#	c #C0BFBF",
"<#	c #1C1B1C",
"[#	c #373536",
"}#	c #626161",
"|#	c #282728",
"1#	c #3E3D3E",
"2#	c #6E6C6D",
"3#	c #959493",
"4#	c #A6A5A3",
"5#	c #DBDAD8",
"6#	c #DFDEDC",
"7#	c #C7C6C5",
"8#	c #B0AEAF",
"9#	c #1C1B1B",
"0#	c #969592",
"a#	c #969591",
"b#	c #C0BFBD",
"c#	c #D1D0CF",
"d#	c #3A3839",
"e#	c #454444",
"f#	c #1E1B1D",
"g#	c #A7A6A4",
"h#	c #DCDBD9",
"i#	c #CFCECD",
"j#	c #262525",
"k#	c #C1C0C1",
"l#	c #696768",
"m#	c #959393",
"n#	c #9C9B99",
"o#	c #D8D7D5",
"p#	c #BCBBBA",
"q#	c #525252",
"r#	c #CDCCCD",
"s#	c #B1B0B0",
"t#	c #9A9997",
"u#	c #D7D6D4",
"v#	c #9F9E9D",
"w#	c #747474",
"x#	c #5B5A5B",
"y#	c #71706F",
"z#	c #9E9D9B",
"A#	c #D9D8D6",
"B#	c #D6D5D3",
"C#	c #626160",
"D#	c #838383",
"E#	c #B8B6B7",
"F#	c #717071",
"G#	c #5F5E5E",
"H#	c #807F7D",
"I#	c #BAB9B7",
"J#	c #8A8987",
"K#	c #1C1B1A",
"L#	c #8F8F8F",
"M#	c #646362",
"N#	c #8B8A88",
"O#	c #8F8E8C",
"P#	c #9F9E9C",
"Q#	c #C6C5C3",
"R#	c #ABAAA9",
"S#	c #777674",
"T#	c #403F3D",
"U#	c #2A2929",
"V#	c #7B797A",
"W#	c #A3A2A2",
"X#	c #787778",
"Y#	c #767573",
"Z#	c #6D6C6A",
"`#	c #605F5D",
" $	c #51504E",
".$	c #201F1D",
"+$	c #41403F",
"@$	c #B5B4B5",
"#$	c #525150",
"$$	c #5D5C5A",
"%$	c #5C5B59",
"&$	c #5A5958",
"*$	c #535250",
"=$	c #41403E",
"-$	c #22211F",
";$	c #1C1B19",
">$	c #535251",
",$	c #C8C7C8",
"'$	c #535253",
")$	c #272625",
"!$	c #595856",
"~$	c #5A5857",
"{$	c #4C4B4A",
"]$	c #393837",
"^$	c #242321",
"/$	c #1B1A18",
"($	c #181715",
"_$	c #1E1D1B",
":$	c #292826",
"<$	c #DBDADA",
"[$	c #5A595A",
"}$	c #3C3B3C",
"|$	c #161415",
"1$	c #4D4C4C",
"2$	c #7A797A",
"3$	c #ACAAA9",
"4$	c #AAA9A7",
"5$	c #757472",
"6$	c #191816",
"7$	c #1D1C1A",
"8$	c #373635",
"9$	c #DFDEDE",
"0$	c #2C2B2C",
"a$	c #888787",
"b$	c #DFDDDD",
"c$	c #D2D2D0",
"d$	c #464644",
"e$	c #434240",
"f$	c #DDDCDC",
"g$	c #646364",
"h$	c #898987",
"i$	c #454543",
"j$	c #DDDCDD",
"k$	c #C2C1C2",
"l$	c #403F3F",
"m$	c #C1BFC0",
"n$	c #C8C7C6",
"o$	c #363534",
"p$	c #3A3937",
"q$	c #2E2D2D",
"r$	c #585757",
"s$	c #838282",
"t$	c #DFDEDD",
"u$	c #8B8A89",
"v$	c #252422",
"w$	c #51504F",
"x$	c #434242",
"y$	c #474546",
"z$	c #D0CFCD",
"A$	c #3E3D3C",
"B$	c #302F2E",
"C$	c #969696",
"D$	c #646464",
"E$	c #3D3B3C",
"F$	c #E0DFDD",
"G$	c #A09F9D",
"H$	c #1D1B1B",
"I$	c #5E5E5E",
"J$	c #5F5F5F",
"K$	c #5D5D5D",
"L$	c #605F5F",
"M$	c #545454",
"N$	c #606060",
"O$	c #5B5B5B",
"P$	c #333333",
"Q$	c #343434",
"R$	c #A4A3A3",
"S$	c #343333",
"  . + @ # $ % & * = - ; > , ' ) ! ~ ~ { ] ] ] ] ] ] ] ] ] ^ ^ ^ ] / ( _ : < # [ } | 1 2 / 3 4 5 [ [ ",
"6 7 8 9 0 a b c & d e f g g f h i j k l l m n n n n n n n n n o p q : r s t u v w x y z A B C D ] E ",
"F G H I : x J K = & L M N N f f e O P Q R S n n n n n n n n n n T D r U ] E V _ W r A X Y p p Z `  .",
"..+.@.#.$.%.&.*.=.= -.;.>.,.'.e f f ).N !.k ~.n n n n n n n n n {.s ].^.. v U /.(._.:.<.o o o ^ [.}.",
"|.- ).1.k 2.3.4.5.6.7.8.9.0.a.b.c.f f e e =.d.S e.e.l l l R f.g.h.i.j.k.l.m.n.e.k o.l l k k k g.).e ",
"0.p.).q.r.R k l s.t.u.v.w.x.y.& z.e f f e e A.!.B.B.!.C.D.A.N ).e E.F.= G.e.l l l l l l k k l H.).> ",
"= 0.I.J.q.K.L.k k l k M.M.N.O.P.P.Q.c.e ).).).).f f f f f f E.j.R.S.& P.).T.S l l l l l R U.V.A.).W.",
"a.& X.q.Y.).Z.`.l k j  +.+f ++P.P.@+#+$+%+&+*+y.=+'.-+;+>+,+#+'+P.P.c 0.M N )+k l l j !+Z.f e ).e ~+",
"a.& #+{+).g f N ]+^+/+N ).(+& P.z._+{+{+,.:+N <+[+}+|+|+1+2+3+4+5+= c 6+).).e B.7+8+A.E.e ).e e 9+l.",
"0+& a+c S.W.> N g N N f N %+0.(+f f N .+`.b+}+c+d+e+f+f+d+d+g+c+h+i+[+]+j+f ).e ).e e e ).f - %+& l.",
"k+m l+m+`.y.n+%+{+o+- j+p+& b.).f e H.R k k 3+q+r+s+t+u+q+v+q+r+}+c+w+*.-+x+f ).).).).e y+z+= P.& l.",
"A+d+B+c+w+C+D+O E+F+@+0.c c G+f f ; H+l l l l l l l l l k k l S l v.f+w+Q c %+j.E.(+I+J+K+_+l.c & >.",
"L+5.M+*.&.B+w+N+O+r+P+o.Q+c 0.c.f ).R+k l l l l l l l l l l l l l 3+B+w+ +@+l.S+T+U+V+r+A+W+X+P.d c.",
"Y+k Z+N.#.`+ @.@w.|+f+d++@@@@+j+N f N #@l l l l l l l l l l l l l e.$@c+%@G+&@*@B+s+=@-@w+w+;@'+o+N ",
"{ S S S S S S S k >@,@w+$@'@#+)@).f ).g 7+l l l l l l l l l l l l S !@c+V.~@; u.{@R l s.|+d+#@E+; R+",
"]@^@^@^@^@^@^@^@l l Z+-@e+/@0.(@> f ).e _@L.l l l l l l l l l l l k :@c+1.<@).[@l l l l }@w+X+|@A.j ",
"]@1@1@1@1@1@1@^@l l l .@f+s+2@#+3@N ).e e <+l l l l l l l l l l l k }+c+)+>+f g.l l l l 4@B+e f P S ",
"]@1@1@1@1@1@1@^@l l l l 5@w+<+6@F+'.).e e 7@j l l l l l l l l l l k :@w+8@9@N 0@l l l l #.&.W.).8+l ",
"]@1@1@1@1@1@1@^@l l l l +@c+1+a@P.b@o+e e e #@l l l l l l l l l l l !@w+{ 3@f c@l l l l .@|+z.; P l ",
"]@1@1@1@1@1@1@^@l l l l S O+w+d@P.#+6@j.e e O V.R l l l l l l l l N.&.w+! e@).0@l l l l f@5@b@E.A.M.",
"]@1@1@1@1@1@1@^@l l l l l g@w+h@i@0.@+=+).e ).f !.T.l l l l l l l D+c+f+T.&@f `.l l l l j@1+k@> ; l@",
"]@1@1@1@1@1@1@^@l l l l l m@c+w+Y+= P.6@> e ).).).A.V.R l l l l l r+f+w+n@e O L.l l l l |+J 0+> f g ",
"o@1@1@1@1@1@1@^@l l l l l S !@f++@c & c p+> ).).f f f p@`.l l S Z+|+w+5@c.N Z.k l l l l |+s+d ; f O ",
"q@1@1@1@1@1@1@^@l l l l l k r@d+s@c n+>+N t@u@=+j+c.f N f !.V.v@L.m@1.w@x@f K.l l l l l 5.w.y@e g g ",
"z@A@1@1@1@1@1@^@l l l l l k 6.f+B@& 3@g.&.j@V+)+C@$+z.3@M ).).).E.:+D@#+,.f P l l l l l O+V+n+> g g ",
"E@F@G@1@1@1@1@^@l l l l l l +@&.D.0.e@m+t.`+H@f+C+I@b+J@c F.b.p+S.0.& & t@f K@j l l l Z+H@L@& S.:+g ",
"M@N@O@1@1@1@1@1@^@^@P@l l l Q@s+k.= :+L.l l l V+$@d+d+C+m@R@#+c c & P.c S@e ; _@!+c@!+T@M n+#+#+U@&@",
"V@N@W@X@Y@Z@1@1@1@1@1@l l l P+.+#+P.&@#@k l k l #.}@s+-@$@5@#@$+= 0.0.& (+).).).e ;+3@b.b.{+j+`@ #.#",
"J@W@W@W@+#@###$#G@1@1@l l l `+~+= = ;+!+l l l l l l k S %#6.&.1+s.X+t@&#%+*#O.=+$+=#-#6.5.$@B+|+V.,+",
";#>#,#,#'#)#!#~#{#]#^#/#L.(#.+6@= F+c.B.S l l ^@1@^@l l k l m@C+d+g+_#:#@.& <#[#:+3+g+w+w+w+w+w+M+}#",
"|#;+f f f ).).).).).O /+h H 1##+P.)@).2#S ^@1@1@1@1@1@1@1@3#G@4#5#6#6#6#7#l.*+).f )+w.8#V+:@d+d+w+,@",
"9#b.E.).f f f f f f N f f - #+P.P.'.).!.S ^@1@0#a#0#1@1@1@1@G@G@b#6#6#6#c#p+j+N e !+l l k %#!@d+d+e+",
"P.& y@y.>+R@d#x@=+>+e#W.>+ #P.f#S.).).K.S ^@1@0#a#0#1@1@1@1@G@G@g#h#6#6#i#U@j.f g U.S l k k s+d+d+d+",
"j#= & & #+9@j u+1+O+k#4@=.a@l.6@D@f ).l#M.m#G@0#a#0#1@1@1@1@G@G@n#o#6#6#p#6@; ).P l S l k l m+e+f+f+",
"q#6@c n+_@r#d+N+*.*.N+w+d+}+s#^+*+).N f !./#G@0#a#0#1@1@1@1@G@G@t#u#6#6#v#8.f g f.S l l k l u+e+f+f+",
"w#l.$+M J *.V+3.e.S  @V+W+f+w+c+=@x#E.f f y#$#0#a#0#1@1@1@1@G@G@z#A#6#B#C#S+).H.S l l l k R A+e+f+f+",
"D#0.(+^+E#%#k S l l l k e.u.5.f+B+r#F#&@f G#H#0#a#0#1@1@1@1@G@$#I#6#B#J#K#M O U.S l l l k k 5.d+f+f+",
"L#F.f N d.S S S l l l l k k Z+E#&.e+*.n@:+f M#N#Z@Z@Z@G@##O#O#P#Q#R#S#T#U#E.V#k l l l l k l }+f+f+w+",
"W#z+O ).8+S S S l l l l l l l l `+W+f+$@X#S@'#+#Y#Y#Z#+#`#W@W@`#W@W@ $.$+$g T.l l l l l k k l+f+f+f+",
"@$$+).).D.M.S S l l l l l l l l l %#W+f+:@&@#$N@N@N@N@N@N@$$%$&$*$=$-$;$>$_@R l l l l l k k 3+|+f+f+",
",$= '$).e c@S S l l l l l l l l l l t.w+B+=@)$!$'#'#'#~${$]$^$/$($/$_$:$)#F#S l l l l l k k k m@!@f+",
"<$[$}$f f 7@L.k l l l l l l l l k l u.c+f+}@|$=+'.S+1#1$2$#.3$4$5$6$7$8$'#K.S l l l l l l l l l g@B+",
"9$ @0.&@g N K.l l l l l l l l S u.1+*.O++@A.9.P.c 0$a$:@w+w+b$6#c$d$_$e$,#.+S l l l l l l l l l l ,@",
"f$C+N z+).f f 1.k l l l l S [+(#Z+l@T@g$).:+= #+&+1.E#6.s+r@&.w+6#h$.$i$W@!.l l l l l l l l l l l  @",
"_ j$k$l$S+).f ).P `.j j Q H+2#e ).f ).).).z+= d#l@k S S S l >@m$b$n$o$p$,#_@R l l l l l l l l l l R ",
"( r W ].q$&@f f f N g g f f f f f f f J@z+[#r$s$l S S S S S l e.5.t$u$v$w$f `.l l l l l l l l l l S ",
"_ r W X x$~+e f f f f f f f f f N ; y$=+M ' `.S S S S S S S l k u+t$z$A$B$; R+S l l l l l l l l l l ",
"B {.C$D$;+ #d#e f f f f f f f ;+W.E$e@C.#@k S S S S S S S S l k V+f+F$G$H$<@).%@S S S S S S S S l l ",
"}.I$I$J$K$q$9#a@G.J$L$G#'.{+[#<@:+l#H+M.l k l l l l l l l l l S 8#w+b$!@y+0$E.N =..+!+8+!+V#H..+!.]+",
"M$N$N$N$O$E [ $ ..P$Q$q$l.9@c._@g.k l k k k l l l l l l l l l l >@!@w+f+R$@+S$E.N N N N N N N N N N "};
